<?xml version="1.0" encoding="UTF-8" standalone="no"?>
<!-- Created with Inkscape (http://www.inkscape.org/) -->

<svg
   xmlns:dc="http://purl.org/dc/elements/1.1/"
   xmlns:cc="http://creativecommons.org/ns#"
   xmlns:rdf="http://www.w3.org/1999/02/22-rdf-syntax-ns#"
   xmlns:svg="http://www.w3.org/2000/svg"
   xmlns="http://www.w3.org/2000/svg"
   xmlns:xlink="http://www.w3.org/1999/xlink"
   xmlns:sodipodi="http://sodipodi.sourceforge.net/DTD/sodipodi-0.dtd"
   xmlns:inkscape="http://www.inkscape.org/namespaces/inkscape"
   width="1296"
   height="765"
   id="svg2"
   version="1.1"
   inkscape:version="0.48.0 r9654"
   sodipodi:docname="img_fond2.png">
  <defs
     id="defs4">
    <linearGradient
       inkscape:collect="always"
       id="linearGradient4665">
      <stop
         style="stop-color:#ff0000;stop-opacity:1;"
         offset="0"
         id="stop4667" />
      <stop
         style="stop-color:#ff0000;stop-opacity:0;"
         offset="1"
         id="stop4669" />
    </linearGradient>
    <radialGradient
       inkscape:collect="always"
       xlink:href="#linearGradient4665"
       id="radialGradient4671"
       cx="170.39189"
       cy="-120.47049"
       fx="170.39189"
       fy="-120.47049"
       r="568.454"
       gradientTransform="matrix(1.2906167,1.3242306,-0.38348465,0.90092201,-95.717306,-269.20643)"
       gradientUnits="userSpaceOnUse" />
  </defs>
  <sodipodi:namedview
     id="base"
     pagecolor="#ffffff"
     bordercolor="#666666"
     borderopacity="1.0"
     inkscape:pageopacity="0.0"
     inkscape:pageshadow="2"
     inkscape:zoom="0.69411765"
     inkscape:cx="648"
     inkscape:cy="382.5"
     inkscape:document-units="px"
     inkscape:current-layer="layer2"
     showgrid="false"
     inkscape:window-width="1280"
     inkscape:window-height="750"
     inkscape:window-x="-8"
     inkscape:window-y="-8"
     inkscape:window-maximized="1"
     inkscape:snap-page="true" />
  <metadata
     id="metadata7">
    <rdf:RDF>
      <cc:Work
         rdf:about="">
        <dc:format>image/svg+xml</dc:format>
        <dc:type
           rdf:resource="http://purl.org/dc/dcmitype/StillImage" />
        <dc:title></dc:title>
      </cc:Work>
    </rdf:RDF>
  </metadata>
  <g
     inkscape:groupmode="layer"
     id="layer2"
     inkscape:label="fond"
     sodipodi:insensitive="true">
    <flowRoot
       xml:space="preserve"
       id="flowRoot4684"
       style="font-size:72px;font-style:normal;font-variant:normal;font-weight:normal;font-stretch:normal;text-align:start;line-height:125%;letter-spacing:0px;word-spacing:0px;writing-mode:lr-tb;text-anchor:start;fill:#000000;fill-opacity:1;stroke:none;font-family:Andalus;-inkscape-font-specification:Andalus"><flowRegion
         id="flowRegion4686"><rect
           id="rect4688"
           width="159.91525"
           height="126.77966"
           x="41.779659"
           y="34.576271" /></flowRegion><flowPara
         id="flowPara4690">lzjdneknde</flowPara></flowRoot>    <path
       sodipodi:type="star"
       style="fill:#000000;stroke:#ff0000;stroke-opacity:1"
       id="path4696"
       sodipodi:sides="5"
       sodipodi:cx="57.627117"
       sodipodi:cy="0"
       sodipodi:r1="485.15781"
       sodipodi:r2="242.5789"
       sodipodi:arg1="1.7559619"
       sodipodi:arg2="2.3842804"
       inkscape:flatsided="false"
       inkscape:rounded="0"
       inkscape:randomized="0"
       d="M -31.694937,476.86441 -118.65134,166.64462 -423.49992,62.408886 -155.33437,-116.15476 -150.40369,-438.2936 102.28814,-238.43221 410.18405,-333.28923 298.19064,-31.20445 483.55009,232.30953 161.64253,219.1468 z"
       inkscape:transform-center-x="27.602026"
       inkscape:transform-center-y="19.285412" />
    <path
       sodipodi:type="star"
       style="fill:#000000;stroke:#ff0000;stroke-opacity:1"
       id="path4702"
       sodipodi:sides="5"
       sodipodi:cx="691.52539"
       sodipodi:cy="344.32202"
       sodipodi:r1="1194.5714"
       sodipodi:r2="597.28564"
       sodipodi:arg1="-0.47335604"
       sodipodi:arg2="0.15496249"
       inkscape:flatsided="false"
       inkscape:rounded="0"
       inkscape:randomized="0"
       d="M 1754.7457,-200.25426 1281.654,436.5089 1538.0014,1187.2213 786.21021,934.05495 151.45596,1409.8387 159.91527,616.61013 -488.73185,159.94824 268.28744,-77.127598 502.15573,-835.14395 961.56008,-188.43628 z"
       inkscape:transform-center-x="58.518442"
       inkscape:transform-center-y="-56.97463" />
    <path
       sodipodi:type="star"
       style="fill:#000000;stroke:#ff0000;stroke-opacity:1"
       id="path4704"
       sodipodi:sides="5"
       sodipodi:cx="1032.9661"
       sodipodi:cy="429.32202"
       sodipodi:r1="957.7746"
       sodipodi:r2="478.88727"
       sodipodi:arg1="-0.71727347"
       sodipodi:arg2="-0.08895494"
       inkscape:flatsided="false"
       inkscape:rounded="0"
       inkscape:randomized="0"
       d="m 1754.7457,-200.25426 -244.7858,587.03305 344.811,534.44672 -633.9446,-51.402 L 819.0897,1362.9114 672.07625,744.11014 78.978395,514.40848 622.06369,183.37029 657.24563,-451.681 1139.9042,-37.472625 z"
       inkscape:transform-center-x="66.091431"
       inkscape:transform-center-y="26.293163" />
    <path
       sodipodi:type="star"
       style="fill:#000000;stroke:#ff0000;stroke-opacity:1"
       id="path4706"
       sodipodi:sides="5"
       sodipodi:cx="43.220341"
       sodipodi:cy="684.32202"
       sodipodi:r1="1926.6018"
       sodipodi:r2="963.30084"
       sodipodi:arg1="-0.47702474"
       sodipodi:arg2="0.15129379"
       inkscape:flatsided="false"
       inkscape:rounded="0"
       inkscape:randomized="0"
       d="M 1754.7458,-200.25426 995.51731,829.50809 1413.3928,2038.7303 199.41613,1634.8752 -821.49193,2405.9687 -812.54232,1126.6101 -1861.3737,393.94986 -641.86586,7.1179074 -269.17125,-1216.7845 475.57645,-176.50125 z"
       inkscape:transform-center-x="96.534309"
       inkscape:transform-center-y="-89.729934" />
    <path
       style="fill:#000000;stroke:#ff0000;stroke-width:1;stroke-opacity:1"
       d="m -410.89831,383.50847 0,-634.61864 664.51272,0.0273 664.51271,0.0273 19.14949,27.13401 c 10.53221,14.92371 20.94723,28.85635 23.14446,30.96144 l 3.99497,3.82743 338.46576,-4.96911 c 186.156,-2.73301 353.5388,-5.36947 371.9614,-5.8588 l 33.4958,-0.8897 0,56.88924 0,56.88925 -98.7908,236.89038 -98.7909,236.89039 98.7909,153.12976 98.7908,153.12976 0,108.7199 0,108.7199 -7.5636,-0.8643 c -20.4941,-2.34183 -262.1528,-21.2485 -262.8377,-20.56363 -0.5718,0.57178 29.4378,90.60868 42.4448,127.34595 0.5097,1.4395 -189.1747,1.8008 -945.32158,1.8008 l -945.95923,0 0,-634.61863 z"
       id="path4730"
       inkscape:connector-curvature="0" />
    <path
       style="fill:#e3dbdb;stroke:#ff0000;stroke-width:1;stroke-opacity:1"
       d="m -410.89831,383.50847 0,-634.61864 664.51272,0.0273 664.51271,0.0273 19.14949,27.13401 c 10.53221,14.92371 20.94723,28.85635 23.14446,30.96144 l 3.99497,3.82743 338.46576,-4.96911 c 186.156,-2.73301 353.5388,-5.36947 371.9614,-5.8588 l 33.4958,-0.8897 0,56.88924 0,56.88925 -98.7908,236.89038 -98.7909,236.89039 98.7909,153.12976 98.7908,153.12976 0,108.7199 0,108.7199 -7.5636,-0.8643 c -20.4941,-2.34183 -262.1528,-21.2485 -262.8377,-20.56363 -0.5718,0.57178 29.4378,90.60868 42.4448,127.34595 0.5097,1.4395 -189.1747,1.8008 -945.32158,1.8008 l -945.95923,0 0,-634.61863 z"
       id="path4732"
       inkscape:connector-curvature="0" />
  </g>
  <g
     inkscape:label="Calque 1"
     inkscape:groupmode="layer"
     id="layer1"
     transform="translate(0,-287.36218)"
     sodipodi:insensitive="true">
    <path
       sodipodi:type="spiral"
       style="color:#000000;fill:#e3dbdb;fill-opacity:1;stroke:url(#radialGradient4671);stroke-width:1.10352731px;stroke-linecap:butt;stroke-linejoin:miter;stroke-miterlimit:4;stroke-opacity:1;stroke-dasharray:none;stroke-dashoffset:0;marker:none;visibility:visible;display:inline;overflow:visible;enable-background:accumulate"
       id="path2985"
       sodipodi:cx="620.93219"
       sodipodi:cy="321.27118"
       sodipodi:expansion="1.24"
       sodipodi:revolution="4.4233141"
       sodipodi:radius="659.10718"
       sodipodi:argument="-29.374615"
       sodipodi:t0="0"
       d="m 620.93219,321.27118 c -4.69447,9.22991 -15.61559,-3.25373 -16.66154,-8.4743 -4.07582,-20.34328 19.66413,-32.49403 36.67772,-30.88002 34.56473,3.27901 51.74824,41.5021 45.04854,72.44718 -10.74419,49.62613 -66.32429,72.87864 -112.34265,59.86147 -65.61966,-18.56178 -95.44746,-93.26862 -75.30727,-155.30295 26.7617,-82.42937 121.8965,-119.19999 200.75006,-91.3333 99.9516,35.32269 143.96751,151.93751 107.88819,248.31121 C 762.77013,534.00619 623.77984,585.52955 509.26242,540.82794 372.43368,487.41715 313.16928,325.26509 366.849,192.04077 429.734,35.970427 615.75278,-31.246848 768.19871,31.726744 943.98808,104.34323 1019.3527,314.8702 946.80052,487.01256 864.21351,682.96411 628.5881,766.65645 436.30793,684.26562 219.78014,591.48483 127.59176,330.21311 220.06088,117.38219 323.24503,-120.11093 610.67516,-220.95347 844.44519,-118.18339 1103.271,-4.3982914 1212.917,309.67168 1099.6377,564.74775 975.0646,845.25445 633.9,963.84542 357.16984,839.86102 54.650958,704.3224 -73.019653,335.6318 61.854854,36.916299 159.66843,-179.71791 376.9431,-324.55722 613.47372,-337.7938"
       transform="matrix(1.1291254,0,0,0.72726313,-7.9870404,403.74364)" />
    <flowRoot
       xml:space="preserve"
       id="flowRoot2987"
       style="font-size:72px;font-style:normal;font-variant:normal;font-weight:normal;font-stretch:normal;text-align:start;line-height:125%;letter-spacing:0px;word-spacing:0px;writing-mode:lr-tb;text-anchor:start;fill:#ff0000;fill-opacity:1;stroke:none;font-family:Courier New;-inkscape-font-specification:Courier New"
       transform="translate(87.881356,262.87065)"><flowRegion
         id="flowRegion2989"><rect
           id="rect2991"
           width="394.74576"
           height="113.81356"
           x="450.93219"
           y="31.694916"
           style="font-size:72px;font-style:normal;font-variant:normal;font-weight:normal;font-stretch:normal;text-align:start;line-height:125%;writing-mode:lr-tb;text-anchor:start;fill:#ff0000;font-family:Courier New;-inkscape-font-specification:Courier New" /></flowRegion><flowPara
         id="flowPara2993">ISOP</flowPara></flowRoot>  </g>
</svg>
