<?xml version="1.0" encoding="UTF-8" standalone="no"?>
<!-- Created with Inkscape (http://www.inkscape.org/) -->

<svg
   xmlns:dc="http://purl.org/dc/elements/1.1/"
   xmlns:cc="http://creativecommons.org/ns#"
   xmlns:rdf="http://www.w3.org/1999/02/22-rdf-syntax-ns#"
   xmlns:svg="http://www.w3.org/2000/svg"
   xmlns="http://www.w3.org/2000/svg"
   xmlns:xlink="http://www.w3.org/1999/xlink"
   xmlns:sodipodi="http://sodipodi.sourceforge.net/DTD/sodipodi-0.dtd"
   xmlns:inkscape="http://www.inkscape.org/namespaces/inkscape"
   width="1300"
   height="120"
   id="svg2"
   version="1.1"
   inkscape:version="0.48.0 r9654"
   sodipodi:docname="Nouveau document 1">
  <defs
     id="defs4">
    <linearGradient
       inkscape:collect="always"
       id="linearGradient2995">
      <stop
         style="stop-color:#0000ff;stop-opacity:1"
         offset="0"
         id="stop2997" />
      <stop
         style="stop-color:#ff0000;stop-opacity:1"
         offset="1"
         id="stop2999" />
    </linearGradient>
    <inkscape:path-effect
       effect="spiro"
       id="path-effect2989"
       is_visible="true" />
    <radialGradient
       inkscape:collect="always"
       xlink:href="#linearGradient2995"
       id="radialGradient3005"
       cx="2502.4558"
       cy="-7226.8633"
       fx="2502.4558"
       fy="-7226.8633"
       r="657.44671"
       gradientTransform="matrix(-0.93510247,-0.00901227,0.00273217,-0.28882141,2979.2757,-2015.9375)"
       gradientUnits="userSpaceOnUse" />
  </defs>
  <sodipodi:namedview
     id="base"
     pagecolor="#ffffff"
     bordercolor="#666666"
     borderopacity="1.0"
     inkscape:pageopacity="0.0"
     inkscape:pageshadow="2"
     inkscape:zoom="0.88461538"
     inkscape:cx="650"
     inkscape:cy="-90.318627"
     inkscape:document-units="px"
     inkscape:current-layer="layer1"
     showgrid="false"
     inkscape:window-width="1280"
     inkscape:window-height="750"
     inkscape:window-x="-8"
     inkscape:window-y="-8"
     inkscape:window-maximized="1" />
  <metadata
     id="metadata7">
    <rdf:RDF>
      <cc:Work
         rdf:about="">
        <dc:format>image/svg+xml</dc:format>
        <dc:type
           rdf:resource="http://purl.org/dc/dcmitype/StillImage" />
        <dc:title></dc:title>
      </cc:Work>
    </rdf:RDF>
  </metadata>
  <g
     inkscape:label="Calque 1"
     inkscape:groupmode="layer"
     id="layer1"
     transform="translate(0,-932.36217)">
    <path
       style="fill:url(#radialGradient3005);fill-opacity:1;fill-rule:nonzero;stroke:#000000"
       id="path2993"
       d="m 4.04594,55.799295 c 2.7505524,-1.034612 5.69739,-1.586334 8.42575,-2.665486 3.040261,-1.267442 6.21947,-2.081139 9.281467,-3.332997 3.691746,-2.274172 7.635501,-4.06506 11.643445,-5.694389 4.049273,-2.078159 8.419234,-3.146334 12.81253,-4.178919 5.085218,-1.321156 10.252623,-2.218933 15.335809,-3.565042 6.214647,-1.624816 12.630257,-2.06498 19.019799,-2.358258 4.329447,-0.07874 8.720526,-0.521433 12.988061,0.471209 2.640646,0.614222 3.340312,1.079886 5.78555,2.194935 5.194989,2.96196 9.807449,6.767365 14.875589,9.929994 4.74738,2.89883 9.30295,6.018913 13.43544,9.745649 2.57747,2.129371 4.24899,5.033413 6.67294,7.30103 1.62753,1.222584 3.69175,1.607332 5.62268,2.131545 2.47396,0.555741 5.02518,0.624185 7.55035,0.689437 2.42367,0.04408 4.84779,0.0177 7.27167,0.02744 3.25085,-0.647613 6.41222,-1.670677 9.65858,-2.373423 4.96203,-1.412285 9.95175,-2.574809 15.01274,-3.579224 1.03314,-0.225324 2.07503,-0.413697 3.09941,-0.675974 4.25052,-1.08828 2.165,-0.838445 6.59007,-1.815364 4.40049,-0.971494 8.88138,-1.70138 13.32353,-2.448729 10.52399,-2.004321 21.14956,-3.287552 31.82283,-4.136927 6.43841,-0.323315 12.90469,-1.012341 19.35294,-0.609205 4.58216,0.701429 9.13297,1.815786 13.77929,1.257398 3.12678,-0.577481 6.27314,-1.056926 9.29666,-2.062558 3.06746,-0.933073 6.22706,-1.491922 9.33716,-2.268043 4.01833,-1.097148 8.17998,-1.307978 12.31843,-1.469252 5.15632,-0.427721 10.22216,0.101293 15.31666,0.820736 4.7298,0.759571 9.23219,2.487658 13.62199,4.352222 4.75333,1.708166 9.31054,3.687545 13.21191,6.9347 3.31071,2.533985 4.62016,6.142106 5.99333,9.897144 1.10886,2.731178 0.9591,6.621174 3.78088,8.226683 2.93948,0.670227 5.84011,-0.727378 8.62895,-1.493224 4.97625,-1.360332 10.04965,-2.041349 15.18189,-2.42691 8.58349,0.23433 16.53098,-2.605164 24.42353,-5.61653 11.96085,-4.594278 23.63738,-9.866635 35.40828,-14.915182 15.01726,-6.716258 29.40237,-14.740685 43.96904,-22.36671 10.62675,-5.643995 21.67504,-10.599468 33.14086,-14.292021 6.92636,-2.230627 8.95255,-2.549143 15.92941,-4.162538 8.77619,-1.8247667 17.7594,-2.8275337 26.69274,-1.6201352 4.07532,0.5508062 6.46844,1.2947612 10.39217,2.3178002 6.48112,2.308531 13.30926,4.179744 18.90511,8.325079 2.31791,2.869299 4.05479,6.132755 6.48944,8.911009 3.04383,3.216434 6.99654,5.366822 10.74639,7.647405 7.27991,4.542656 14.19366,9.626593 21.37941,14.310271 12.92735,8.892187 26.66196,16.408043 40.7693,23.22818 6.69626,3.25667 13.48292,6.515173 20.74023,8.336275 1.40773,0.353247 2.81687,0.76732 4.26361,0.883233 1.47368,0.118071 2.95418,-0.124399 4.43128,-0.186598 -1.57335,2.430976 13.28994,-6.125894 10.09971,-4.32689 -2.25516,1.271705 -7.40185,6.223928 -6.82969,3.698931 0.6361,-2.807184 4.77605,-3.216108 7.10389,-4.909051 4.93515,-3.589128 9.22207,-7.120102 13.975,-10.934121 10.03908,-8.055271 18.54063,-17.663222 26.27764,-27.887269 3.82795,-4.499064 6.41869,-9.993697 10.69695,-14.105308 7.31772,-6.145945 15.63649,-9.255322 24.47123,-11.620307 6.53307,-1.865492 13.05712,-3.537589 19.79471,-4.4527139 5.67234,-0.5435879 11.4047,-0.9821811 17.0967,-0.4134437 2.00191,0.2000284 6.38084,0.9873944 8.38991,1.332585 6.10639,0.9334926 11.55931,3.2883386 16.36269,7.1193416 3.06195,2.876928 5.66797,6.209176 8.44064,9.365022 1.99148,1.969974 3.13858,4.436791 4.13874,7.0021 1.3473,3.312224 2.0377,6.837574 3.1449,10.237581 1.96894,5.618727 4.83662,10.890345 9.73186,14.482306 1.30012,0.953981 2.72882,1.719027 4.09323,2.57854 10.75661,5.273346 22.57252,5.743915 34.27386,4.263801 2.82118,-0.356855 5.61363,-0.912614 8.42045,-1.368921 12.00591,-2.291818 23.32928,-6.993238 34.76006,-11.162637 7.44179,-2.886226 14.96562,-5.549759 22.42157,-8.40023 18.14257,-6.668902 36.81148,-11.72012 55.50638,-16.560498 17.2806,-4.321791 34.5372,-8.77343 51.899,-12.76223 4.7927,-1.24171 9.7249,-1.880003 14.6324,-0.901329 2.6133,0.52116 4.3135,1.295888 6.8033,2.247165 6.3874,3.050789 12.4039,6.802428 18.7537,9.927749 5.442,2.6785 6.1024,2.819373 11.7574,5.092151 5.8121,2.169206 11.7814,3.862708 17.6828,5.763045 2.2931,0.738412 7.0654,2.14306 9.2563,3.488983 1.2298,0.755558 2.2107,1.856459 3.316,2.784688 3.8411,6.415772 3.8406,13.983104 5.7181,21.014965 0.6624,2.864316 1.6616,4.21286 4.1854,5.538497 5.5323,1.936301 11.4411,2.590408 17.2086,3.486239 12.1667,1.67642 24.293,4.07105 36.5836,4.71976 2.515,0.132743 5.0366,0.06575 7.5548,0.09863 8.9811,-0.289232 17.9721,-1.976352 26.4655,-4.934773 2.6298,-0.916023 4.77,-1.948347 7.2702,-3.086455 8.4137,-4.644557 -6.5053,3.829387 -9.814,5.644399 -0.6004,0.329381 1.1327,-0.770713 1.6845,-1.176275 1.6822,-1.236271 3.1986,-2.607825 4.7017,-4.051334 2.9155,-2.665765 5.4931,-5.664347 8.3685,-8.369336 2.1143,-2.027169 4.6009,-3.519034 7.1077,-4.993754 2.6657,-1.462142 4.804,-3.635619 7.2669,-5.380361 6.8383,-3.26213 13.5208,-8.567295 20.9604,-11.104938 0.3931,-0.176375 0.7862,-0.35275 1.1792,-0.529125 0,0 -13.0912,10.349914 -13.0912,10.349914 l 0,0 c -0.4074,0.168344 -0.8149,0.336688 -1.2223,0.505033 -5.8525,2.68713 -17.5035,7.550108 7.7022,-5.262096 -2.6669,1.52812 -4.698,3.777014 -7.2779,5.432268 -2.4635,1.518106 -5.0603,2.789384 -7.2546,4.698107 -2.9735,2.634843 -5.5702,5.615986 -8.4607,8.336256 -6.9337,7.050887 -15.4992,11.99427 -24.6061,15.990593 -10.608,4.357263 -21.9758,6.776434 -33.459,6.959611 -2.5325,-0.07007 -5.0691,-0.04865 -7.5974,-0.210213 -12.4095,-0.793016 -24.6752,-3.13218 -37.0215,-4.495128 -6.1039,-0.778084 -12.5137,-1.114099 -18.2478,-3.515831 -2.6415,-1.578663 -4.1556,-3.714341 -4.7019,-6.802683 -1.574,-6.80129 -1.1984,-14.117302 -4.8627,-20.314234 -1.0041,-0.818907 -1.9052,-1.783475 -3.0123,-2.45672 -2.1918,-1.33297 -6.6492,-2.740906 -8.9281,-3.507488 -5.8789,-1.977519 -11.8388,-3.71343 -17.6358,-5.930332 -6.1087,-2.481452 -5.9926,-2.316483 -11.8866,-5.174788 -6.3884,-3.098115 -12.5242,-6.716084 -19.0787,-9.467353 -2.8862,-0.978548 -3.6938,-1.39645 -6.6701,-1.859026 -4.6793,-0.727259 -9.3415,-0.02123 -13.9151,1.014068 -17.0435,3.616291 -33.977,7.7546 -50.8621,12.042445 -19.03928,5.004324 -38.0234,10.342499 -56.39774,17.468869 -7.54695,2.93961 -15.12533,5.803099 -22.72791,8.594188 -11.21119,3.987065 -22.40763,8.250674 -34.16945,10.336251 -2.83655,0.433357 -5.65957,0.967197 -8.50967,1.300071 -12.11116,1.414509 -24.32431,0.769411 -35.42628,-4.690485 -1.44688,-0.905932 -2.96491,-1.707076 -4.34063,-2.717796 -5.10645,-3.751623 -8.23641,-9.233511 -10.45918,-15.043075 -1.19349,-3.333938 -2.09996,-6.748752 -3.37963,-10.040183 -0.89759,-2.401528 -1.92482,-4.70318 -3.75676,-6.561248 -2.62326,-3.136194 -5.14296,-6.401984 -8.16791,-9.164358 -4.56157,-3.621676 -9.84918,-5.693152 -15.59951,-6.639906 -2.70612,-0.45197 -5.50329,-0.978073 -8.24265,-1.195329 -5.67178,-0.449824 -11.37315,0.03818 -17.00191,0.727844 -6.75502,1.079658 -13.3218,2.865237 -19.88588,4.775787 -2.1359,0.61351 -4.23534,1.274651 -6.33744,1.993269 -0.52368,0.179026 -2.04392,0.821329 -1.57356,0.529672 10.84766,-6.726428 17.99455,-9.874782 11.89822,-7.143541 -4.99892,3.554501 -7.47461,9.508113 -11.46505,14.021512 -8.00466,10.461498 -16.5612,20.232428 -26.86638,28.541374 -4.20621,3.38997 -9.57288,7.777933 -13.89587,11.008319 -2.26112,1.689634 -4.49192,3.433784 -6.88853,4.925013 -6.49877,4.043692 -13.11434,7.900364 -19.77741,11.667179 -1.82984,1.034456 -3.71134,2.00591 -5.68553,2.727707 -1.64773,0.602442 -3.41283,0.81514 -5.11925,1.22271 -1.55669,-0.03096 -3.12481,0.09793 -4.67007,-0.09289 -1.46539,-0.180954 -2.89114,-0.612605 -4.31144,-1.016193 -7.15464,-2.033038 -13.7689,-5.557464 -20.38212,-8.8724 -14.04662,-7.122537 -27.85457,-14.683719 -41.1118,-23.204958 -7.34262,-4.572999 -14.4992,-9.436447 -21.90219,-13.914468 -3.95681,-2.303171 -8.07652,-4.577111 -11.20777,-7.981068 -2.32797,-2.713114 -4.03846,-5.845004 -6.25681,-8.640596 -5.30049,-4.038429 -11.83861,-5.95466 -18.04672,-8.134051 -3.91448,-1.014814 -6.00855,-1.685791 -10.08463,-2.198055 -8.73625,-1.097931 -17.51007,-0.01907 -26.07782,1.765488 -6.9539,1.639229 -8.7699,1.914 -15.6786,4.187519 -11.41055,3.754988 -22.3768,8.783725 -32.96657,14.423987 -14.67476,7.701335 -29.15848,15.825913 -44.33653,22.511072 -11.8775,5.140688 -23.67727,10.468777 -35.76631,15.105069 -8.44128,3.149387 -15.96015,5.519155 -25.07252,5.554795 -5.1274,0.501851 -10.19651,1.336041 -15.14803,2.796664 -3.18192,0.942613 -6.50391,2.069823 -9.62639,0.343083 -2.94661,-2.544062 -3.03691,-5.606436 -4.16619,-9.126691 -1.29903,-3.469579 -2.36871,-6.846524 -5.47758,-9.182304 -3.84718,-3.085987 -8.34447,-4.890337 -12.96927,-6.521128 -4.2857,-1.755224 -8.64309,-3.455191 -13.26282,-4.076504 -5.06471,-0.644125 -10.1205,-0.913549 -15.22422,-0.518397 -4.11582,0.242203 -8.22031,0.657815 -12.20526,1.776891 -3.12371,0.742824 -6.26968,1.41299 -9.33723,2.367981 -3.10298,0.802137 -6.25759,1.44053 -9.45353,1.726197 -4.6682,0.08166 -9.20958,-0.964802 -13.83512,-1.461394 -6.26513,-0.25561 -12.54455,0.143299 -18.79999,0.467224 -10.6475,0.820579 -21.22597,2.192152 -31.71118,4.244889 -7.8467,1.443793 -15.58902,3.242889 -23.31321,5.218314 -5.11104,1.055617 -10.11294,2.454065 -15.16581,3.745439 -3.3091,0.792191 -6.56706,2.02475 -9.99131,2.159438 -2.43583,0.01575 -4.87266,0.0105 -7.30715,-0.08102 -2.62525,-0.127262 -5.27855,-0.279234 -7.82093,-0.997224 -2.15943,-0.658072 -4.37601,-1.194464 -6.04659,-2.829416 -2.32433,-2.320816 -3.88043,-5.267517 -6.43029,-7.38799 -4.03561,-3.684247 -8.54418,-6.703859 -13.19677,-9.559155 -4.965286,-3.169271 -9.516022,-6.953305 -14.726244,-9.728262 -2.3889,-0.983486 -2.959005,-1.358915 -5.520569,-1.846445 -4.207541,-0.800799 -8.522472,-0.320574 -12.764335,-0.243575 -6.364866,0.364895 -12.735669,0.94874 -18.89894,2.68166 -5.121012,1.30874 -10.324937,2.223553 -15.429955,3.59641 -4.365437,1.062919 -8.60191,2.468522 -12.669838,4.400175 -4.008758,1.704324 -7.824791,3.770292 -11.7179471,5.715142 -3.1207754,1.189838 -6.3395524,2.07707 -9.42957632,3.349402 -2.86288198,0.827465 -5.69391938,1.737707 -8.50963058,2.71549 0,0 13.251855,-10.295315 13.251855,-10.295315 z"
       inkscape:connector-curvature="0"
       transform="translate(0,932.36217)" />
  </g>
</svg>
